<?xml version="1.0" encoding="utf-8"?>
<!-- Generator: Adobe Illustrator 26.0.1, SVG Export Plug-In . SVG Version: 6.00 Build 0)  -->
<!DOCTYPE svg PUBLIC "-//W3C//DTD SVG 1.0//EN" "http://www.w3.org/TR/2001/REC-SVG-20010904/DTD/svg10.dtd" [
	<!ENTITY ns_extend "http://ns.adobe.com/Extensibility/1.0/">
	<!ENTITY ns_ai "http://ns.adobe.com/AdobeIllustrator/10.0/">
	<!ENTITY ns_graphs "http://ns.adobe.com/Graphs/1.0/">
	<!ENTITY ns_vars "http://ns.adobe.com/Variables/1.0/">
	<!ENTITY ns_imrep "http://ns.adobe.com/ImageReplacement/1.0/">
	<!ENTITY ns_sfw "http://ns.adobe.com/SaveForWeb/1.0/">
	<!ENTITY ns_custom "http://ns.adobe.com/GenericCustomNamespace/1.0/">
	<!ENTITY ns_adobe_xpath "http://ns.adobe.com/XPath/1.0/">
]>
<svg version="1.0" id="Layer_1" xmlns:x="&ns_extend;" xmlns:i="&ns_ai;" xmlns:graph="&ns_graphs;"
	 xmlns="http://www.w3.org/2000/svg" xmlns:xlink="http://www.w3.org/1999/xlink" x="0px" y="0px" viewBox="0 0 1633 448.9"
	 style="enable-background:new 0 0 1633 448.9;" xml:space="preserve">
<metadata><?xpacket begin="﻿" id="W5M0MpCehiHzreSzNTczkc9d"?>
<x:xmpmeta xmlns:x="adobe:ns:meta/" x:xmptk="Adobe XMP Core 7.1-c000 79.a8731b9, 2021/09/09-00:37:38        ">
   <rdf:RDF xmlns:rdf="http://www.w3.org/1999/02/22-rdf-syntax-ns#">
      <rdf:Description rdf:about=""
            xmlns:xmp="http://ns.adobe.com/xap/1.0/"
            xmlns:xmpGImg="http://ns.adobe.com/xap/1.0/g/img/"
            xmlns:xmpTPg="http://ns.adobe.com/xap/1.0/t/pg/"
            xmlns:stDim="http://ns.adobe.com/xap/1.0/sType/Dimensions#"
            xmlns:xmpG="http://ns.adobe.com/xap/1.0/g/"
            xmlns:illustrator="http://ns.adobe.com/illustrator/1.0/"
            xmlns:dc="http://purl.org/dc/elements/1.1/"
            xmlns:xmpMM="http://ns.adobe.com/xap/1.0/mm/"
            xmlns:stRef="http://ns.adobe.com/xap/1.0/sType/ResourceRef#"
            xmlns:stEvt="http://ns.adobe.com/xap/1.0/sType/ResourceEvent#"
            xmlns:pdf="http://ns.adobe.com/pdf/1.3/">
         <xmp:CreatorTool>Adobe Illustrator 26.0 (Windows)</xmp:CreatorTool>
         <xmp:CreateDate>2022-11-14T21:37:45+02:00</xmp:CreateDate>
         <xmp:ModifyDate>2022-11-14T21:37:45+02:00</xmp:ModifyDate>
         <xmp:MetadataDate>2022-11-14T21:37:45+02:00</xmp:MetadataDate>
         <xmp:Thumbnails>
            <rdf:Alt>
               <rdf:li rdf:parseType="Resource">
                  <xmpGImg:width>256</xmpGImg:width>
                  <xmpGImg:height>72</xmpGImg:height>
                  <xmpGImg:format>JPEG</xmpGImg:format>
                  <xmpGImg:image>/9j/4AAQSkZJRgABAgEASABIAAD/7QAsUGhvdG9zaG9wIDMuMAA4QklNA+0AAAAAABAASAAAAAEA&#xA;AQBIAAAAAQAB/+4ADkFkb2JlAGTAAAAAAf/bAIQABgQEBAUEBgUFBgkGBQYJCwgGBggLDAoKCwoK&#xA;DBAMDAwMDAwQDA4PEA8ODBMTFBQTExwbGxscHx8fHx8fHx8fHwEHBwcNDA0YEBAYGhURFRofHx8f&#xA;Hx8fHx8fHx8fHx8fHx8fHx8fHx8fHx8fHx8fHx8fHx8fHx8fHx8fHx8fHx8f/8AAEQgASAEAAwER&#xA;AAIRAQMRAf/EAaIAAAAHAQEBAQEAAAAAAAAAAAQFAwIGAQAHCAkKCwEAAgIDAQEBAQEAAAAAAAAA&#xA;AQACAwQFBgcICQoLEAACAQMDAgQCBgcDBAIGAnMBAgMRBAAFIRIxQVEGE2EicYEUMpGhBxWxQiPB&#xA;UtHhMxZi8CRygvElQzRTkqKyY3PCNUQnk6OzNhdUZHTD0uIIJoMJChgZhJRFRqS0VtNVKBry4/PE&#xA;1OT0ZXWFlaW1xdXl9WZ2hpamtsbW5vY3R1dnd4eXp7fH1+f3OEhYaHiImKi4yNjo+Ck5SVlpeYmZ&#xA;qbnJ2en5KjpKWmp6ipqqusra6voRAAICAQIDBQUEBQYECAMDbQEAAhEDBCESMUEFURNhIgZxgZEy&#xA;obHwFMHR4SNCFVJicvEzJDRDghaSUyWiY7LCB3PSNeJEgxdUkwgJChgZJjZFGidkdFU38qOzwygp&#xA;0+PzhJSktMTU5PRldYWVpbXF1eX1RlZmdoaWprbG1ub2R1dnd4eXp7fH1+f3OEhYaHiImKi4yNjo&#xA;+DlJWWl5iZmpucnZ6fkqOkpaanqKmqq6ytrq+v/aAAwDAQACEQMRAD8A9U4q7FXYq7FXYq7FXYq7&#xA;FXYq7FXYq7FXYq7FXYq7FXYq7FXYq7FXYq7FXYq7FXYq7FXYq7FXYq7FXYq7FXYq7FXYq7FXYq7F&#xA;XYq7FXYq7FXYq7FXYq7FXYq7FXYq7FXYq7FXYq7FXYq7FXYq7FXYq7FXYq7FXYq7FXYq7FXYq7FX&#xA;Yq7FXYq7FXYq7FXYq7FXYq7FXYq7FXYq7FXYq7FXYq7FXYq7FXYq7FXYq7FXYq7FXYq7FXYq7FXY&#xA;q7FXYq7FXYq7FXYq7FXYq7FXYq7FXYq7FXYq7FXYq7FXYq7FXYq7FXYq7FXYq7FXYq7FXYq7FXYq&#xA;7FXYq7FXYq7FXYq7FXYq7FXYq7FXYq7FXYq7FXYq7FXYq7FXYq7FXYq7FXYq7FXYq7FXYq7FXYq7&#xA;FXYq7FXYq7FXYq7FXYq7FXYq7FXYq7FXYq7FXYq7FXYq7FXYq7FXYq7FXYq7FXYq7FXYq7FXYq7F&#xA;XYq7FXYq7FXYq7FXYq7FXYqh73ULCxi9W9uYrWLs8zrGv3sRk4Y5TNRBPuasuaGMXOQiPM0kVx+Z&#xA;PkeBiH1WMkGn7tJJB96K2Zkey9Qf4PuddPtzRx55B8LP3Bda/mL5KuSBHq0Kk9PVDxD75FTBPszU&#xA;R5wP3/cyx9t6SfLIPjY++k/t7m3uYhNbypNE32ZI2DKfkRUZhyiYmiKLsoTjIXE2PJUyLJ2KuxV2&#xA;KuxV2KuxV2KuxV2KuxV2KuxV2KuxV2KuxV2KuxV2KuxV2KuxV2KpB5k88+XfL3wX1wWuqVFpCOct&#xA;D0qKgLX/ACiMzdL2flzbxG3eeTrdd2tg020z6u4bn8e9iafnLLdzGPS/L9xe07LIeXt8KRy/rzZH&#xA;sMRFzyCP494dKPaczNY8UpfH9QKPi/MvWEHO98palbxj7TqjuB/wUceUnsvGfpywP495cmPbuUbz&#xA;0+SI9x/UEs8z/nFB+j1h0GKVNRlJWQ3MYDQgf5NWVmNduozI0nYh4rykcI7jzcTX+00eCsIPGf5w&#xA;+n9qF8t/ldqesSjVvNtzMTLRhasxMzDt6jH7A/yRv8ss1Xa0MQ4MAHv6fDv/ABzadD2BkznxdUTv&#xA;06/Hu933PQ9P8p+WdPQLaaZbx06OY1Z/pduTH780eTWZp/VI/N6fD2dp8Q9MIj4b/PmmD2Nk6lXt&#xA;42U7FSikfiMpGSQ6lyTigdiB8kjvvJOml2utHdtF1HqtzZ/AhPhJD/duvjUfTmXj18+WT95HuP6D&#xA;zDr8vZWO+LF+6n3x/THkUZ5bk8yNZyR6/FCl3DIUjmgaqzRgCknH9mvh+AyrVDFxA4iaI69PJv0M&#xA;s5iRnA4geY6jv8vxsm2YzmuxV2KuxV2KuxV2KuxV2KuxV2KuxV2KuxV2KuxV2KuxV2KuxV2KuxV2&#xA;KsFvvym0m/8AM82r3dzJJa3DmWSxpSshpX97yrwPgB9ObjH2xOGEY4jcdf2PO5vZzFk1ByykTE78&#xA;Pn7+5mlnZWdlbrb2kKW8CfZijUKo+gZqp5JTNyNl32LFHHHhiBEeStkGxDXOl6ZdTRT3NpDPNAwe&#xA;GWSNWZGG4KsRUZZDLOIIBIBacmnxzIMogkcrHJE5W3OxV2KuxV2KuxV2KuxV2KuxV2KuxV2KuxV2&#xA;KuxV2KuxV2KuxV2KuxV2KuxV2Kv/2Q==</xmpGImg:image>
               </rdf:li>
            </rdf:Alt>
         </xmp:Thumbnails>
         <xmpTPg:NPages>1</xmpTPg:NPages>
         <xmpTPg:HasVisibleTransparency>False</xmpTPg:HasVisibleTransparency>
         <xmpTPg:HasVisibleOverprint>False</xmpTPg:HasVisibleOverprint>
         <xmpTPg:MaxPageSize rdf:parseType="Resource">
            <stDim:w>576.093617</stDim:w>
            <stDim:h>158.344681</stDim:h>
            <stDim:unit>Millimeters</stDim:unit>
         </xmpTPg:MaxPageSize>
         <xmpTPg:PlateNames>
            <rdf:Seq>
               <rdf:li>Cyan</rdf:li>
               <rdf:li>Magenta</rdf:li>
            </rdf:Seq>
         </xmpTPg:PlateNames>
         <xmpTPg:SwatchGroups>
            <rdf:Seq>
               <rdf:li rdf:parseType="Resource">
                  <xmpG:groupName>Default Swatch Group</xmpG:groupName>
                  <xmpG:groupType>0</xmpG:groupType>
               </rdf:li>
            </rdf:Seq>
         </xmpTPg:SwatchGroups>
         <illustrator:CreatorSubTool>Adobe Illustrator</illustrator:CreatorSubTool>
         <dc:format>image/svg+xml</dc:format>
         <dc:title>
            <rdf:Alt>
               <rdf:li xml:lang="x-default">БАЙДАЁЖ ЛОГО цвет final</rdf:li>
            </rdf:Alt>
         </dc:title>
         <xmpMM:RenditionClass>default</xmpMM:RenditionClass>
         <xmpMM:DocumentID>xmp.did:abcf64bb-7732-8a46-9b98-7d682cf20d81</xmpMM:DocumentID>
         <xmpMM:InstanceID>xmp.iid:abcf64bb-7732-8a46-9b98-7d682cf20d81</xmpMM:InstanceID>
         <xmpMM:OriginalDocumentID>uuid:cf2cd2b0-e29d-444f-9030-794fd4952d24</xmpMM:OriginalDocumentID>
         <xmpMM:DerivedFrom rdf:parseType="Resource">
            <stRef:instanceID>xmp.iid:3665f055-7c04-a146-9040-a7e2b8405ee1</stRef:instanceID>
            <stRef:documentID>xmp.did:3665f055-7c04-a146-9040-a7e2b8405ee1</stRef:documentID>
            <stRef:originalDocumentID>uuid:cf2cd2b0-e29d-444f-9030-794fd4952d24</stRef:originalDocumentID>
            <stRef:renditionClass>default</stRef:renditionClass>
         </xmpMM:DerivedFrom>
         <xmpMM:History>
            <rdf:Seq>
               <rdf:li rdf:parseType="Resource">
                  <stEvt:action>saved</stEvt:action>
                  <stEvt:instanceID>xmp.iid:844e711c-7949-9645-a6cf-787f2709ce2b</stEvt:instanceID>
                  <stEvt:when>2021-04-04T16:15:39+03:00</stEvt:when>
                  <stEvt:softwareAgent>Adobe Illustrator CC 23.1 (Windows)</stEvt:softwareAgent>
                  <stEvt:changed>/</stEvt:changed>
               </rdf:li>
               <rdf:li rdf:parseType="Resource">
                  <stEvt:action>saved</stEvt:action>
                  <stEvt:instanceID>xmp.iid:abcf64bb-7732-8a46-9b98-7d682cf20d81</stEvt:instanceID>
                  <stEvt:when>2022-11-14T21:37:45+02:00</stEvt:when>
                  <stEvt:softwareAgent>Adobe Illustrator 26.0 (Windows)</stEvt:softwareAgent>
                  <stEvt:changed>/</stEvt:changed>
               </rdf:li>
            </rdf:Seq>
         </xmpMM:History>
         <pdf:Producer>Adobe PDF library 15.00</pdf:Producer>
      </rdf:Description>
   </rdf:RDF>
</x:xmpmeta>
                                                                                                    
                                                                                                    
                                                                                                    
                                                                                                    
                                                                                                    
                                                                                                    
                                                                                                    
                                                                                                    
                                                                                                    
                                                                                                    
                                                                                                    
                                                                                                    
                                                                                                    
                                                                                                    
                                                                                                    
                                                                                                    
                                                                                                    
                                                                                                    
                                                                                                    
                                                                                                    
                           
<?xpacket end="w"?>
	</metadata>
<path style="fill:#FFFFFF;" d="M716.6,265.5c0.9-2.5,1.8-4.1,2.3-5.6c12.5-36.5,24.9-73.1,37.1-109.7c1.8-5.5,4.7-8.9,10.7-9.7
	c17.4-2.3,34.9-4.7,52.3-7.2c9.4-1.3,14.7,5.1,20.3,10.8c1.5,1.5-0.1,2.6-2,2.7c-5.4,0.3-10.8,0.5-16.2,1c-10.4,0.9-20.7,2.1-31.1,3
	c-3,0.3-4.5,1.4-5.5,4.4c-4.5,14.3-9.3,28.4-14.1,42.9c3.2,2,6.9,2.4,10.3,3.4c9.5,2.9,18.9,6.1,28.1,10.2
	c10.6,4.7,15.2,13.8,18.8,23.7c1.7,4.8-0.6,8.8-5.7,10.9c-4.2,1.8-8.5,3.3-12.8,4.8c-21.7,7.6-43.6,14.7-64.7,23.8
	c-1.2,0.5-2.5,1.2-3.7,1c-8.4-0.8-17-0.9-24.1-6.4C715.9,268.6,715.9,267.5,716.6,265.5z M804.1,229.9c-6.2-4.6-30.2-14.5-38.7-16.3
	c-5.4,12.6-11.6,31.9-11.4,35.9C770.6,243.5,787.7,238.4,804.1,229.9z"/>
<path style="fill:#FFFFFF;" d="M1466.9,238.6c-11.1,7.5-20.9,16.4-30.4,25.7c-1.2,1.2-2.4,2.5-3.7,3.7c-2.2,2-4.7,2.1-7.2,0.5
	c-4.9-3-9-6.8-13-10.8c-2.5-2.4-2.3-4.3,0.2-6.7c2-2,4.4-3.6,6.6-5.3c17.4-13.4,34.1-27.7,50.6-42.2c2.2-2,1.5-3.5,0.7-5.5
	c-6.9-16.2-15.5-31.6-23.9-47c-1.5-2.9-3-5.8-4.6-8.6c-1.3-2.3-1-4.1,1.3-5.5c5-3,10.3-4.6,16.1-4.7c3.9-0.1,6.7,2.1,8.6,5.1
	c2.1,3.3,3.8,6.8,5.5,10.3c4.7,10.2,9.5,20.3,15.2,30.7c3.6-7,5.6-14.1,8.2-20.9c2.9-7.5,5.6-15.1,8.4-22.6c2.1-5.4,3-6.1,8.8-5.2
	c6,1,11.8,2.8,16.9,6.4c3.9,2.7,4.6,4.2,3.1,8.8c-2.5,7.6-5.3,15.1-8,22.7c-0.3,0.8-0.9,1.6,0.4,3c3.6-2.7,7.4-5.4,11.1-8.2
	c6.6-5,13-10.2,19.7-15.1c6.7-4.9,8.7-4.7,14.8,0.6c2.5,2.1,4.8,4.5,6.8,7c2.9,3.6,2.5,4.9-0.9,7.4c-12.2,9.2-24.2,18.5-36.3,27.8
	c-6.7,5.1-13.6,10.1-21.2,14.8c1.9,5.9,4.8,11.4,7.5,17c5.9,12.3,12.7,24.2,19.2,36.3c5.7,10.5,4.2,11.4-5.9,14.7
	c-12.2,4-12.6,3.4-18.8-7.1c-5.3-9-9.5-18.5-13.9-27.9c-1.2-2.5-2.5-5-4.3-8.7c-2.3,6.2-4.3,11.2-6.1,16.3
	c-2.8,7.7-5.5,15.5-8.4,23.3c-2,5.5-2.8,6.1-8.7,5.6c-6.3-0.5-12.5-1.3-18.2-4.3c-4.5-2.4-5.3-3.8-3.9-8.8
	c1.7-5.8,3.8-11.5,5.8-17.3C1465.5,242.2,1466.2,240.4,1466.9,238.6z"/>
<path style="fill:#FFFFFF;" d="M997,210.6c2.2-2.8,4.4-5.6,6.5-8.5c15.2-20.1,30.4-40.3,45.6-60.4c1.6-2.1,3-4.2,4.2-6.6
	c1.4-2.9,3.8-4,7-3.6c6.5,0.9,12.8,2.5,18.7,5.5c4.4,2.3,5,3.3,3.5,8.2c-1.3,4.4-2.8,8.7-4.2,13c-11.6,36.4-23.2,72.8-34.8,109.1
	c-0.5,1.4-1,2.9-1.6,4.3c-0.9,2.2-2.5,3.3-5.1,3.3c-6.4,0-12.6-0.7-18.6-2.8c-5.9-2.1-7.1-4.4-5.2-10.4
	c7.6-23.3,15.4-46.6,23.1-69.8c0.6-1.8,1.2-3.6,1.2-5.6c-11.3,14.6-22.5,29.3-33.8,43.9c-5.3,6.9-10.5,13.9-15.9,20.7
	c-5,6.3-9.4,13-13.2,20.1c-2.8,5.2-3.2,5.4-8.7,4.5c-4.3-0.7-8.6-1.3-12.9-2.1c-1.9-0.4-3.8-0.9-5.6-1.6c-4.4-1.9-5.1-3.5-3.5-8.1
	c6.7-18.8,13.6-37.5,20.4-56.3c8.6-23.4,17.2-46.8,25.8-70.3c2.4-6.5,4.1-7.5,10.7-5.9c4.4,1.1,8.7,2.6,12.6,5.2
	c5.7,3.8,6.5,5.9,4.3,12.6c-5,14.6-10.2,29.1-15.3,43.6c-2.1,5.9-4.1,11.7-6.1,17.6C996.4,210.3,996.7,210.4,997,210.6z"/>
<path style="fill:#FFFFFF;" d="M1081.2,264.2c-5.2-7.7-5.3-9.3-0.1-16.3c11.8-15.9,24.5-31.1,37.2-46.3
	c18.7-22.3,37.5-44.6,56.7-66.5c3.3-3.8,6.4-5.2,11.3-3.5c4.7,1.7,9.6,2.9,14,5.3c4.4,2.4,4.9,3.5,3.7,8.4c-0.4,1.7-1.1,3.3-1.7,4.9
	c-9.5,26.6-20,52.7-28.7,79.6c-3.1,9.4-5.7,19-8.6,28.9c4.2,1.6,8.3,2,12.3,2.9c5,1.1,5.7,1.8,4.8,6.6c-1.6,8.6-4.5,16.8-8.3,24.6
	c-1,2.1-2.4,3.3-5.1,3.3c-5.9,0-11.7-0.7-17.2-3c-4.1-1.7-4.6-2.7-3.4-7c1.5-5.4,3.3-10.7,5.1-16.4c-6.9-0.4-13.3,1-19.8,1.6
	c-16.2,1.4-32.4,3.5-48.7,4.7c-6.4,0.5-10.4,1.9-11.7,9c-0.9,5-3.1,9.9-5.9,14.4c-1.1,1.8-2.3,3.1-4.7,2.5c-6.1-1.5-12.2-3.1-18-5.7
	c-1.9-0.8-2.5-1.9-1.7-4.1c2.5-7,4.8-14,7-21c0.6-2.1,2.1-2.7,3.8-3c5.8-1,11.6-1.8,17.4-2.7C1074.1,265,1077.3,264.7,1081.2,264.2z
	 M1100.2,261.8c10.5-1.2,20.8-2.5,31.1-3.6c2.4-0.3,3-1.4,3.8-3.6c7.8-22,15.8-44,23.7-66c0.5-1.3,1.7-2.6,0.1-4.4
	C1137.9,208.9,1117.5,233.8,1100.2,261.8z"/>
<path style="fill:#FFFFFF;" d="M1257.1,231.3c-7.4,1.6-14,3.1-20.5,4.5c-0.6,0.1-1.2,0.6-1.9,0.6c-7.9-0.3-12.3,4.7-16.5,10.5
	c-4.8,6.7-10.3,13-15.7,19.2c-4,4.6-5.8,4.4-10.2,0.4c-0.8-0.7-1.6-1.5-2.3-2.3c-4.9-5.4-5.1-7.2-0.6-12.9
	c29.7-38.6,59.4-77.2,89.3-115.7c8.7-11.2,6.2-9.1,18.2-5.7c4.8,1.4,9.5,3.1,14.2,4.8c7.2,2.6,7.9,3.9,5.6,11
	c-4.9,14.8-10,29.6-14.9,44.4c-8.4,25.3-16.6,50.7-24.9,76.1c-0.5,1.6-1.1,3.3-1.8,4.9c-1,2.2-2.7,3.5-5.2,3.2
	c-6-0.7-12.1-1.2-17.9-3.4c-5.3-2.1-6.2-3.4-4.6-8.8c2.6-8.7,5.5-17.4,8.3-26C1256,234.9,1256.4,233.7,1257.1,231.3z M1278.3,169.7
	c-0.2-0.1-0.4-0.2-0.7-0.3c-13.2,17.3-26.3,34.5-40.2,52.7c7.9-1.4,14.5-2.8,21.1-3.7c2.4-0.3,3.4-1.5,4.1-3.5
	C1267.9,199.9,1273.1,184.8,1278.3,169.7z"/>
<path style="fill:#FFFFFF;" d="M892.4,231.5c-10.7,2.3-20.5,4.4-30.2,6.3c-2.1,0.4-2.7,2-3.8,3.3c-6.2,7.6-12.1,15.4-18.5,22.8
	c-6.4,7.5-8.7,7.4-15.1-0.3c-4.3-5.1-4.3-6.7-0.3-11.9c30.2-39.1,60.3-78.1,90.5-117.2c6-7.8,6.1-7.8,15.5-4.9
	c5.8,1.8,11.6,3.7,17.2,5.8c5.6,2.1,6.3,3.7,4.4,9.4c-4.8,14.6-9.9,29.2-14.7,43.8c-8.6,26.2-17.2,52.3-25.7,78.6
	c-2.1,6.4-3.8,8.2-10.8,6.8c-4.9-1-9.9-1.4-14.6-3.2c-4.4-1.7-5.3-3.4-3.9-8.1c2.6-8.7,5.5-17.4,8.3-26.1
	C891.2,235.1,891.6,233.7,892.4,231.5z M890.4,198.8c-0.4,0.5-0.8,0.9-1.1,1.4c-0.9,1.2-1.9,2.5-2.8,3.7c-0.4,0.5-0.8,1-1.2,1.5
	c-0.9,1.2-1.8,2.4-2.7,3.6c-0.4,0.5-0.9,1.1-1.3,1.6c-0.9,1.2-1.8,2.4-2.7,3.6c-0.4,0.5-0.9,1.1-1.3,1.6c-0.9,1.2-1.8,2.4-2.7,3.6
	c-0.4,0.5-0.8,1-1.1,1.5c-0.4,0.6-0.6,0.7,0.3,0.8c1,0,1.4,0,2.2-0.2c0.7-0.1,1.1-0.1,1.8-0.2c1.2-0.1,2.3-0.4,3.5-0.5
	c0.4-0.1,0.9-0.1,1.3-0.2c1.3-0.3,1.7-0.3,3.1-0.7c1.2-0.1,2.3-0.4,3.5-0.6c1.3-0.3,1.7-0.4,3.1-0.6c1.2-0.2,2.3-0.3,3.5-0.4
	c0.5-0.2,0.6-0.6,1.2-1.3c0.7-1.1,0.8-1.9,1.5-3.4c0.3-0.5,0.5-1.1,0.7-1.6c0.2-0.8,0.5-1.5,0.7-2.3c0.2-0.5,0.3-1.1,0.5-1.7
	c0.2-0.8,0.6-1.5,0.7-2.2c0.2-0.5,0.4-1.1,0.7-1.7c0.2-0.8,0.5-1.4,0.7-2.2c0.2-0.6,0.5-1.1,0.7-1.8c3.5-10.3,7.6-20.4,9.6-31.4
	c-5.8,7.7-11.6,15.5-17.3,23.2c-0.4,0.5-0.9,1.1-1.3,1.6c-0.9,1.2-1.8,2.4-2.7,3.6C891.2,197.8,890.8,198.3,890.4,198.8L890.4,198.8
	z"/>
<path style="fill:#FFFFFF;" d="M1429.6,142.9c-5.2,1.9-9.9,2-14.6,2.4c-12.3,1-24.7,2-37,2.8c-2.8,0.2-4.2,1.2-5.1,3.9
	c-5.7,17-10.3,34.4-15.7,52.3c5.6-1.2,10.7-2.1,15.7-3.3c7-1.7,14-3.2,20.8-5.3c5.3-1.7,9.3-0.5,12.9,3.4c1.9,2,4.4,3.5,5.2,6.9
	c-10.4,2.1-20.6,4-30.8,6.1c-8.1,1.6-16.2,3.3-24.3,4.8c-2.5,0.4-3.8,1.5-4.4,3.9c-3,10.9-6.1,21.7-9.1,32.6
	c-0.1,0.3,0.2,0.8,0.4,1.5c9.2-1.2,18.1-3.6,27.2-5.5c3.6-0.7,7.2-1.5,10.7-2.7c5.2-1.8,9.8-1,14.1,2.2c3.1,2.3,6.6,4.1,9,8.2
	c-5.4,1.5-10.4,2.9-15.3,4.2c-14.7,3.8-29.4,7.7-44.4,10.5c-8.1,1.5-16.3,2.5-24.6,0.6c-2.1-0.5-4.3-0.9-6.3-1.6
	c-6.8-2.4-7.4-3.5-5.2-10.4c11.9-38.4,24-76.7,35.6-115.1c1.6-5.2,4.3-7.1,9.1-7.6c6.9-0.8,13.8-1.7,20.7-2.6
	c12.9-1.5,25.9-2.9,38.8-4.6c2.6-0.3,4.6,0,6.5,1.7C1423.3,135.1,1426.6,138.4,1429.6,142.9z"/>
<path style="fill:#FFFFFF;" d="M1225.8,346.5c-5.2,2.8-10,4.2-15.5,3.2c-15-2.8-19.9-20-12.2-30.4c4.8-6.6,13.2-9.6,20.9-7.4
	c7.9,2.2,13.3,8.6,14,17c0.6,7.4,0.6,14.8,0,22.2c-0.7,8.6-7.5,14-15.5,14.4c-2.8,0.4-4.9,0.2-7.6,0c-6.4-0.3-10.2-3.9-13.4-8.4
	c-1.3-1.9-1.7-4.2,0.5-5.8c2.2-1.6,4-0.7,5.5,1.4c2.3,3,4.9,5.5,8.8,6.4C1219.4,360.7,1225.8,355.6,1225.8,346.5z M1214.2,318.8
	c-6.6-0.1-12.3,5.3-12.3,11.8c0,6.5,5.7,12.1,12.1,12.1c6.1-0.1,11.8-5.5,11.9-11.6C1226.2,324.6,1220.7,318.9,1214.2,318.8z"/>
<path style="fill:#FFFFFF;" d="M719,330.3c0-4.6-0.1-9.2,0-13.7c0.2-4.6,1.9-5.9,6-4.1c1.5,0.6,2.4,0.3,3.5-0.1
	c5.5-2.1,10.8-1.5,15.4,2.1c2.1,1.6,3,1.1,4.8-0.1c6.6-4.4,13.9-4.1,19.2,0.6c3.1,2.7,5.1,6,5.2,10.2c0.1,6.8,0,13.5,0.1,20.3
	c0,2.5-0.8,4.5-3.5,4.5c-2.6,0-3.7-2.1-3.7-4.5c-0.1-5.2,0-10.5,0-15.7c0-1.5,0-3.1-0.3-4.5c-0.9-3.6-4-6.1-7.5-6.2
	c-3.9-0.1-6.8,2.3-7.9,6.4c-0.9,3-0.6,6-0.6,9.1c0,3.7-0.1,7.4,0,11.1c0,2.6-1,4.5-3.6,4.4c-2.5-0.1-3.6-2-3.6-4.6
	c0.1-5.2,0-10.5,0-15.7c0-1.7,0.1-3.5-0.5-5.2c-1.3-3.4-3.9-5.5-7.3-5.5c-3.8-0.1-6.6,1.9-7.7,5.7c-1.1,3.6-0.7,7.3-0.8,11
	c0,3.5-0.1,7,0,10.5c0,2.5-1.4,3.8-3.5,3.7c-2.1-0.1-3.6-1.4-3.6-3.9c0-2.6,0-5.2,0-7.8C719,335.5,719,332.9,719,330.3z"/>
<path style="fill:#FFFFFF;" d="M951.3,328.1c-3.2,4.4-3.5,9.6-5.5,14c-0.7,1.6-1.1,3.3-1.6,4.9c-0.7,2.2-2.4,3.2-4.5,2.8
	c-2.3-0.5-2.9-2.4-2.5-4.6c0.2-1.1,0.4-2.1,0.8-3.2c2.9-8.6,5.7-17.3,8.6-25.9c0.3-1,0.6-2.1,1.2-3c1.7-2.6,4.8-2.7,6.3,0.1
	c1.3,2.5,2,5.3,3,7.9c1.6,3.9,1.9,8.3,4.6,12.1c1.9-5.6,3.7-10.9,5.5-16.2c0.5-1.4,0.9-3,1.8-4.1c1.7-2.3,4.4-2.1,5.9,0.3
	c0.7,1.1,1.1,2.4,1.5,3.6c2.9,8.6,5.7,17.3,8.5,25.9c0.1,0.4,0.4,0.8,0.5,1.2c0.8,3.3,0.1,5.2-2.2,5.9c-2.1,0.7-3.9-0.5-5-3.7
	c-2.1-5.9-4-11.9-6.1-18.4c-2.8,5.4-3.9,10.7-5.9,15.7c-0.4,1-0.9,2-1.1,3.1c-0.4,2.2-1.8,3.6-3.9,3.6c-2.4,0-3.2-1.9-3.9-3.8
	c-1-2.9-1.9-5.8-2.9-8.6C953.5,334.6,952.5,331.5,951.3,328.1z"/>
<path style="fill:#FFFFFF;" d="M1073.2,103c-6.8,9.3-16,13.5-26.9,14.5c-6.4,0.6-12.6-0.4-18.6-2.4c-9.9-3.3-14.6-12-12.9-22.7
	c0.5-3.4,1.6-3.9,4.8-2.5c2.2,1,4.3,2.1,6.4,3.1c3.5,1.7,6,3.5,5.4,8.4c-0.5,4.5,2.8,6.6,7.4,5.6c5.7-1.2,10.3-4.3,14.7-8
	c7.2-6,7.2-6,14.6-0.3C1069.7,99.9,1071.1,101.2,1073.2,103z"/>
<path style="fill:#FFFFFF;" d="M825.2,346.5c0,5.6-0.1,10.6,0,15.6c0,2.4-1.1,2.9-3.2,2.8c-2.1-0.1-4,0-4-2.9
	c0.1-11.7-0.8-23.5,0.5-35.1c1-9,9.3-15.6,18.8-15.6c9.5,0,17.6,6.4,19.1,15.3c1.4,7.9-0.8,14.7-7.3,19.6
	c-6.2,4.7-13.1,5.1-20.2,1.9C828,347.7,827,347.3,825.2,346.5z M849.5,330.6c-0.1-6.4-5.8-11.9-12.3-11.7
	c-6.3,0.1-11.7,5.4-11.8,11.6c-0.1,6.4,5.5,12.2,12,12.2C843.8,342.7,849.6,336.9,849.5,330.6z"/>
<path style="fill:#FFFFFF;" d="M1482.6,330.6c0-4.8-0.1-9.6,0-14.3c0.1-3.9,1.2-4.9,5.1-5c3.9-0.1,7.8-0.1,11.7,0
	c7.8,0.3,13,6.6,11.2,14.1c-0.7,2.8-0.4,4.6,1.1,7.1c4.7,8,0.2,16.8-9,17.6c-5,0.5-10,0.2-15,0.1c-3.9-0.1-5-1.3-5.1-5.2
	C1482.5,340.2,1482.6,335.4,1482.6,330.6z M1490.1,342.6c4.5,0,8.1,0.1,11.8-0.1c2.4-0.1,4.2-1.6,4.1-4.2c-0.1-2.5-1.8-3.8-4.4-3.8
	c-2.6,0-5.2,0.1-7.8-0.1c-2.8-0.2-4,0.8-3.7,3.7C1490.3,339.4,1490.1,340.7,1490.1,342.6z M1490.4,326.8c3.5,0,6.5,0.3,9.5-0.1
	c2-0.2,3.7-1.6,3.5-4c-0.1-2.2-1.5-3.5-3.7-3.8c-0.6-0.1-1.3-0.1-2,0C1489.3,319,1489.8,317.4,1490.4,326.8z"/>
<path style="fill:#FFFFFF;" d="M1477.4,337c0,2.8,0.2,5.7,0,8.5c-0.3,4.5-3.4,6.1-6.3,2.8c-2-2.2-2.9-0.8-4.2-0.2
	c-10.4,4.9-20.6,0.7-25.5-7.4c-4.1-6.7-3.5-15.7,1.5-22c5.2-6.7,13.5-9.1,21.6-6.4c7.9,2.7,12.9,9.3,13.1,17.5
	C1477.4,332.2,1477.4,334.6,1477.4,337z M1469.8,330.7c0-6.9-5-11.9-11.9-11.9c-6.6,0.1-12,5.6-11.9,12.1
	c0.2,6.1,5.6,11.6,11.8,11.7C1464.3,342.8,1469.8,337.3,1469.8,330.7z"/>
<path style="fill:#FFFFFF;" d="M1150.4,330.9c0-11,8.4-19.5,19.2-19.6c11,0,19.5,8.2,19.7,19.2c0.2,10.5-8.7,19.6-19.3,19.7
	C1159.3,350.3,1150.4,341.5,1150.4,330.9z M1170.1,342.7c6.4-0.2,11.8-5.9,11.6-12.4c-0.2-6.6-5.8-11.7-12.5-11.4
	c-6.4,0.3-11.3,5.4-11.3,12C1158,337.3,1163.7,342.8,1170.1,342.7z"/>
<path style="fill:#FFFFFF;" d="M1106.3,331.2c-0.1,10.5-8.7,19.1-19.1,19c-11.1-0.1-19.7-8.9-19.4-20.1c0.2-11,8.7-18.8,19.8-18.9
	C1096.6,311.1,1107.3,319.6,1106.3,331.2z M1086.9,342.6c6.5,0.1,12.2-5.5,12.2-11.9c0-6.2-5.3-11.7-11.5-11.9
	c-6.7-0.2-12.3,4.9-12.6,11.5C1074.7,336.5,1080.6,342.6,1086.9,342.6z"/>
<path style="fill:#FFFFFF;" d="M1355.8,330.9c0-4.3,0-8.7,0-13c0-1.3,0-2.7,0.4-3.8c0.8-2.4,3.3-3.5,5.1-1.8c2.1,2,3.6,1.2,5.7,0.4
	c12.6-4.6,24.7,3.6,25.1,16.9c0.1,4.8,0,9.6,0,14.3c0,1.1-0.1,2.2-0.3,3.2c-0.3,1.7-1.5,2.6-3.2,2.8c-2,0.2-3.4-1-3.7-2.8
	c-0.4-2.1-0.3-4.3-0.3-6.5c0-3.7,0.1-7.4,0-11.1c-0.2-6-4.5-10.3-10.2-10.5c-5.8-0.2-10.4,3.8-10.8,9.8c-0.3,4.1-0.1,8.2-0.2,12.4
	c0,0.9,0,1.7,0,2.6c-0.2,4.5-1.3,6.4-4,6.3c-2.2-0.1-3.5-2.1-3.6-6C1355.7,339.6,1355.8,335.2,1355.8,330.9z"/>
<path style="fill:#FFFFFF;" d="M898.3,331c0,4.8,0.2,9.6,0,14.3c-0.2,4.1-2.7,5.8-5.9,3.5c-1.9-1.4-2.8-1-4.4-0.3
	c-11.8,5.1-25.1-2.4-25.9-16.7c-0.3-5-0.1-10,0-15c0-0.8,0.2-1.7,0.4-2.5c0.6-1.8,1.8-3.2,3.8-3c1.9,0.2,3.1,1.6,3.3,3.5
	c0.2,2.2,0.1,4.3,0.1,6.5c0,3.5-0.2,7,0.1,10.4c0.4,6.4,5.1,10.9,10.8,10.8c5.7-0.1,10.1-4.8,10.3-11.2c0.1-3.9,0-7.8,0-11.7
	c0-0.9-0.1-1.7,0-2.6c0.3-3.7,1.7-5.8,4-5.8c2.2,0,3.5,2.1,3.5,5.9C898.3,321.9,898.3,326.4,898.3,331z"/>
<path style="fill:#FFFFFF;" d="M1026.4,330.9c0-4.8-0.1-9.6,0-14.3c0.2-5.1,2.2-6.4,6.3-3.5c1.8,1.3,2.6,0.3,3.9-0.2
	c4.1-1.6,8.4-2.2,12.7-0.9c7.9,2.5,12.3,8.1,13.1,16.1c0.5,5.6,0.2,11.3,0.2,16.9c0,0.4-0.1,0.9-0.2,1.3c-0.4,2.2-1.8,3.7-3.9,3.6
	c-2.1-0.1-3.4-1.7-3.4-4c0-5.2,0-10.4,0-15.7c0-4-1.6-7.1-4.9-9.4c-6.8-4.7-15.7-0.5-16.3,7.8c-0.3,4.3,0,8.7-0.1,13
	c0,1.5,0,3-0.2,4.5c-0.3,2.1-1.6,3.8-3.8,3.7c-2.2-0.1-3.5-1.6-3.5-3.9c0-2,0-3.9,0-5.9C1026.4,337,1026.4,334,1026.4,330.9z"/>
<path style="fill:#FFFFFF;" d="M796.2,336.3c3.1-7.4,5.4-13.2,7.9-18.9c0.7-1.6,1.4-3.2,2.3-4.6c0.9-1.4,2.4-1.9,4-1.2
	c1.7,0.8,2.7,2.2,2.4,4.2c-0.2,1.1-0.6,2.1-1.1,3.1c-5.9,14-11.7,28-17.6,42c-0.6,1.4-0.7,3.3-2.3,3.8c-1.8,0.6-4,1-5.6-0.4
	c-1.3-1.2-0.5-2.8,0.1-4.2c0.3-0.8,0.7-1.6,1-2.4c1.5-3.8,4.2-7.7,4.2-11.5c0-3.6-2.7-7.2-4.2-10.8c-2.3-5.4-4.5-10.8-6.7-16.3
	c-0.5-1.2-1-2.4-1.2-3.7c-0.3-1.8,0.8-3,2.2-3.7c1.4-0.7,2.9-0.4,4.1,0.9c1.1,1.2,1.5,2.6,2.1,4C790.4,322.7,793,328.8,796.2,336.3z
	"/>
<path style="fill:#FFFFFF;" d="M1133.5,330.6c3.2,3.9,6.1,7.4,9,10.9c0.8,1,1.6,2,2.3,3.1c0.9,1.5,0.7,2.9-0.5,4.1
	c-1.5,1.5-3.1,1.4-4.7,0.4c-1-0.7-1.9-1.7-2.7-2.7c-2.7-3.1-5.3-6.2-8.2-9.7c-2.2,2.5-4.2,4.7-6.2,7c-1,1.1-1.9,2.4-2.9,3.5
	c-2.8,2.9-4.9,3.5-6.6,1.7c-2.1-2.3-0.9-4.4,0.7-6.3c2.1-2.5,4.1-5,6.2-7.5c1.2-1.5,2.7-2.8,3.4-4.9c-2.6-3.1-5.3-6.2-7.9-9.4
	c-1.1-1.3-2.1-2.8-3-4.2c-1.2-1.8-0.5-3.3,0.9-4.6c1.3-1.2,2.8-1,4.1,0.1c1.1,1,2.3,2,3.3,3.1c1.6,1.8,3,3.7,4.6,5.5
	c3.3,3.8,3.4,3.7,6.5,0.1c1.7-2,3.4-4,5.1-5.9c0.7-0.8,1.4-1.7,2.2-2.3c1.7-1.3,3.4-2,5.2-0.1c1.6,1.6,1.3,3.2,0.2,4.7
	c-1.5,2.1-3.2,4.1-4.8,6.1C1137.7,325.6,1135.7,327.9,1133.5,330.6z"/>
<path style="fill:#FFFFFF;" d="M1246,327c3.8,0,7-0.1,10.2,0c6.9,0.2,11.8,4.8,12,11.2c0.2,6.5-4.3,11.4-11.3,11.9
	c-4.6,0.3-9.2,0.2-13.7,0c-3.5-0.1-4.7-1.4-4.8-4.9c-0.1-9.8-0.1-19.6,0-29.4c0-2.3,0.8-4.4,3.7-4.5c2.4-0.1,3.7,1.6,3.8,5
	C1246.1,319.6,1246,322.8,1246,327z M1251.9,342.7C1251.9,342.6,1251.9,342.6,1251.9,342.7c1.5,0,3,0.1,4.5-0.1
	c2.4-0.2,4.1-1.5,4.1-4.1c0-2.6-1.6-3.9-4.1-4c-2.8-0.1-5.6,0-8.4,0c-1,0-1.6,0.4-2,1.2c-1.5,4,0.4,6.9,4.6,6.9
	C1251.1,342.7,1251.5,342.7,1251.9,342.7z"/>
<path style="fill:#FFFFFF;" d="M1518.7,330.9c0-5,0-10,0-15c0-2.3,0.5-4.5,3.4-4.6c2.8,0,3.7,1.9,3.7,4.3c0,1.3,0,2.6,0,3.9
	c0,7.4,0,7.4,7.7,7.4c1.3,0,2.6-0.1,3.9,0c5.8,0.6,10,4.8,10.5,10.6c0.5,5.8-2.8,10.7-8.7,12.1c-5.8,1.4-11.7,0.6-17.5,0.4
	c-2.2-0.1-3.2-1.8-3.2-4.1C1518.8,340.9,1518.7,335.9,1518.7,330.9z M1532.6,334.7c0,0,0-0.1,0-0.1c-0.4,0-0.9,0-1.3,0
	c-5.3,0.1-6.5,1.5-5.4,6.5c0.2,1,0.7,1.6,1.6,1.6c3.3,0,6.5,0.2,9.8-0.2c2.1-0.3,3.3-2.1,3.2-4.3c-0.1-2-1.3-3.2-3.3-3.4
	C1535.7,334.5,1534.1,334.7,1532.6,334.7z"/>
<path style="fill:#FFFFFF;" d="M917.7,311.3c2.8-0.2,5.7,0.8,8.3,2.4c4.4,2.6,7.1,7.7,3.7,14c-0.8,1.5-1.1,2.2-0.3,3.9
	c3.4,7,1.8,12.8-4,16.3c-6.2,3.8-15.7,2.5-19.7-2.6c-1.5-1.9-2-4.1-0.2-5.9c1.7-1.7,3.7-0.9,5.3,0.5c2.2,2,4.7,3.1,7.7,2.7
	c2.7-0.3,4.5-1.9,5-4.5c0.5-2.6-1.6-3.8-3.7-4.6c-1.2-0.5-2.5-0.6-3.8-1c-1.4-0.4-2-1.5-2.1-3c-0.1-1.8,0.8-2.9,2.3-3.5
	c1.8-0.7,3.9-0.2,5.6-1.5c1.9-1.5,2.1-3.5,0-4.7c-2.8-1.5-5.8-1.5-8.7,0c-0.6,0.3-1,0.9-1.5,1.3c-1.9,1.6-3.9,3-6.3,0.7
	c-1.8-1.7-1.2-4.1,1.4-6.7C909.6,312.3,913.3,311.2,917.7,311.3z"/>
<path style="fill:#FFFFFF;" d="M1317.4,330.6c-0.2-7.9,3.5-13.3,9.8-16.9c6.3-3.7,12.8-3.4,19.2,0.1c0.2,0.1,0.4,0.2,0.6,0.3
	c3,2,4.1,4.3,3,6.3c-1.2,2.1-3,2.2-6.8,0.4c-6.3-3-10.8-2.5-14.9,1.5c-4.1,4.1-4.8,10-1.6,14.9c3.3,5,9.5,6.7,14.8,4.3
	c1.2-0.6,2.3-1.2,3.5-1.8c1.8-1,3.3-0.6,4.6,1c1.7,2,0.7,3.9-0.8,5.2c-4.1,3.7-9.2,4.9-14.5,4.2
	C1323.9,348.6,1317.3,340.8,1317.4,330.6z"/>
<path style="fill:#FFFFFF;" d="M1415.3,324.2c-3.5,7.5-6.5,14.2-9.7,20.8c-2.2,4.6-4.1,5.9-6.4,4.6c-2.2-1.3-2.4-3.2-0.4-7.5
	c4-8.9,8.1-17.8,12.1-26.7c0.2-0.4,0.5-0.7,0.7-1.1c0.6-1.8,1.8-2.9,3.8-3c2.2-0.1,3,1.4,3.8,3c2.8,6.1,5.7,12.2,8.5,18.3
	c1.5,3.4,3,6.8,4.5,10.1c0.7,1.4,1.2,2.8,1,4.4c-0.1,1.5-1.2,2.3-2.4,2.8c-1.4,0.7-2.7,0.1-3.5-0.9c-0.9-1.2-1.6-2.6-2.2-3.9
	C1421.9,338.4,1418.8,331.7,1415.3,324.2z"/>
<path style="fill:#FFFFFF;" d="M1414,119.5c-5.7-0.8-10.7-2.1-15.6-4.1c-2.2-0.9-2.7-2.4-2.4-4.7c0.9-5.2,2.6-10.1,4.8-14.8
	c0.8-1.7,1.8-2.9,4-2.4c4.8,1.2,9.7,2.3,14.6,3.5c2.8,0.7,3.7,2.6,3.2,5.4c-0.9,5.2-2.5,10.1-5,14.7
	C1416.7,118.9,1415.5,119.8,1414,119.5z"/>
<path style="fill:#FFFFFF;" d="M1376.1,117.3c-4-0.8-9.1-1.8-13.9-3.7c-2.1-0.8-2.9-2.3-2.6-4.5c0.8-5.4,2.6-10.5,4.7-15.5
	c0.6-1.5,1.8-2.3,3.6-2.1c5.4,0.7,10.6,1.8,15.7,3.7c2.2,0.8,3.1,2.3,2.4,4.5c-1.5,5.2-3,10.4-4.7,15.5
	C1380.7,117.2,1379.2,117.8,1376.1,117.3z"/>
<path style="fill:#FFFFFF;" d="M1278.7,330.7c0,4.8,0,9.5,0,14.3c0,2.5-0.8,4.3-3.3,4.9c-2.1,0.5-4.2-1.6-4.2-4.7
	c-0.2-9.7-0.1-19.5,0-29.2c0-2.2,1.1-4.3,3.7-4.6c2.1-0.2,3.6,1.7,3.7,5C1278.8,321.2,1278.7,325.9,1278.7,330.7z"/>
<path style="fill:#FFFFFF;" d="M1558.6,331.1c0,4.6,0.1,9.1,0,13.7c-0.1,3.3-1.6,5.4-3.6,5.1c-2.6-0.4-3.5-2.2-3.5-4.7
	c0-9.8,0-19.6,0-29.4c0-2.5,1-4.6,3.6-4.4c2.5,0.1,3.5,2.1,3.5,4.6C1558.5,321.1,1558.6,326.1,1558.6,331.1
	C1558.6,331.1,1558.6,331.1,1558.6,331.1z"/>
<path style="fill:#FFFFFF;" d="M995.9,340c2.7-0.1,5.2,2.1,5.3,4.6c0.2,2.4-2.2,5.3-4.6,5.5c-2.8,0.3-5.6-2.2-5.6-5.1
	C991.1,342.4,993.2,340.1,995.9,340z"/>
<path style="fill:#FFFFFF;" d="M1291.9,345.1c0,2.8-2.1,5-4.7,5.1c-2.6,0-4.9-2.2-5-4.9c-0.1-3.1,2.1-5.4,5.1-5.3
	C1290,340.1,1291.9,342.3,1291.9,345.1z"/>
<path style="fill:#FFFFFF;" d="M678.4,173c-3.2-10.5-9.3-19.3-16.4-27.6c-3.6-4.2-7.9-6.3-13.2-7.3c-10.1-1.7-19.9,0.2-29.6,2.7
	c-21,5.4-40.6,14.4-59.7,24.4c-1.8,1-3.1,2.5-4.3,4.1c-7.8,10.2-15.6,20.4-23.3,30.6c-1.1,1.5-2.2,2.8-4.1,3.4
	c-11.9,4-23.9,8.1-35.8,12.4c-2,0.7-2.7,0.3-3.2-1.5c-1.9-6.5-4-13.1-7.2-19.1c-6.1-11.5-15.3-18.6-28.9-18.9
	c-6.3-0.1-12.1,2-17.6,4.8c-1,0.5-1.9,2-3.6,1c1.7-4.1,4-7.7,6.5-11.1c7.5-10.5,16.4-19.7,25.9-28.4c29.4-26.8,61.6-49.6,96.2-69.1
	c5-2.8,10-5.6,15.4-8.6c-1.4-0.4-2.4-0.7-3.3-0.8c-1.8-0.3-3.6-0.4-5.4-0.7c-26.3-4.4-52.7-7.3-79.3-7.8
	c-24.7-0.5-49.2,0.7-73.6,4.4c-37.7,5.7-73.7,16.8-107.6,34.5c-30.8,16.1-58.1,36.8-81.9,62.2c-16.8,17.9-30.9,37.9-43.1,59.2
	c-13.2,23-24,47-32.2,72.2c-0.5,1.6-1.6,3.5-1.1,4.7c1.4,3.6,2.8,7.2,5.7,10.5c3.1-4.3,4.4-9,6.1-13.4c11-29.3,24.3-57.4,41.9-83.4
	c25.3-37.3,56.6-68.3,95.3-91.7c43.4-26.3,90.8-40.4,141-45.8c20.1-2.2,40.2-2.5,60.3-2c2.1,0.1,4.3,0,6.1,1.2
	c-2.3,8,1.3,13.9,6.2,19.5c-3,2.1-5.8,4-8.5,5.9c-21.8,15.1-42.9,30.9-61.2,50.3c-2.7,2.9-1.9,2.5-5.3,0.5
	c-7.8-4.7-15.6-9.4-23.7-14.3c-1,5.1,1.1,8.7,4.5,11.6c3.2,2.7,7.1,4.1,11.2,5.3c2.6,0.8,5.5,0.6,8.4,2.1c-1.2,1.5-2.2,2.8-3.2,4.1
	c-6.9,9.2-12.5,19.2-15.6,30.4c-1.6,5.8-2.5,11.7-0.8,17.7c2.3,8.3,9.5,10.2,15.4,4.1c3.8-4,8.2-7.3,13.2-9.7
	c10.3-4.9,18,0.3,21.5,8c5.4,12,9.2,24.6,10.9,37.7c0.6,4.4,0.9,9-0.5,13.4c-1.4,4.4-3.5,6.1-8,6.1c-6,0-11.9-1.2-17.6-3.2
	c-2.4-0.8-4.6-2.3-4.5-5.3c0.1-1.6,0.3-3.4,1-4.8c0.7-1.2,2.5-1.4,3.9-1.8c0.9-0.3,1.9-0.6,2.5-1.4c-1-2.9-1.9-5.7-2.9-8.6
	c-1.2-3.5-1.3-3.5-5-2.2c-10.7,3.7-21.3,7.4-31.9,11.1c-11.7,4.1-23.5,8.1-35.4,12.2c-0.6-1.7-1.1-3.3-1.6-4.9
	c-2.3-7.1-4.4-14.3-7.9-20.9c-5.5-10.5-13.8-17.6-26-18.5c-16.1-1.2-27.9,7.4-37.7,18.9c-4,4.7-0.4,11.9,5.8,12.8
	c3.3,0.5,5.8-0.8,8-3.1c4.3-4.5,9.1-8.2,14.9-10.6c6.5-2.7,12-1.2,16.8,3.7c1.6,1.7,2.9,3.6,3.8,5.8c4.5,11.1,8.1,22.5,10.1,34.3
	c0.8,4.6,1,9.3,0.3,13.9c-0.7,4.8-2.9,7.4-7,7.8c-6.6,0.6-12.8-1.3-19.2-2.5c-0.3-0.1-0.6-0.3-0.9-0.5c-1.7-0.9-2.3-2.2-2.1-4.1
	c0.2-1.8,0.8-3.2,2.6-3.8c1.3-0.4,2.5-1,3.8-1.3c2.1-0.5,2.6-1.6,1.8-3.5c-0.9-2.3-1.8-4.6-2.5-7c-0.6-2.1-1.3-2.9-3.8-2
	c-6.6,2.6-13.4,4.9-20.1,7.3c-47.1,17-94.3,33.9-141.4,50.9c-2.3,0.8-4.4,0.8-6.7,0.1c-10.6-3.2-21.3-6.3-32-9.5
	c-7.5-2.2-15.1-3.8-23.1-3.2c-15.3,1.2-30.4,3.5-45,8.1C52.5,330,36,338.1,21.8,350.3c-7.1,6.1-13.2,12.8-14.6,22.5
	c-0.8,5.3-0.7,10.7-0.1,16c1.6,14,6,27.2,12,39.9c2.5,5.2,6.6,8.7,12,10.6c3.5,1.2,7.1,1.8,10.8,1.9c8.6,0.2,16.9-1.2,25.1-3.4
	c23.1-6.1,44.7-15.8,65.4-27.6c6.5-3.7,11.9-8.8,15.7-15.6c9.1-16.2,18.7-32.2,28-48.3c1.5-2.6,3.4-4.1,6.3-5.1
	c39.8-14.2,79.6-28.6,119.4-42.9c5.9-2.1,11.7-4.2,17.9-6.4c2.3,11.5,9.9,16.8,20.4,18.8c5.4,1,10.8,2,16.3,2.1
	c14.8,0.3,23.2-8.6,25.7-19.7c1.5-6.8,1.1-13.6,0.6-20.4c-0.2-3.3-0.4-3.3,2.8-4.4c13.8-4.8,27.6-9.6,41.4-14.4
	c1.1-0.4,2.1-1.1,3.5-0.2c1.1,11.1,8.3,17.2,18.4,20.3c5.5,1.7,11.3,2.7,17.1,3.1c15.2,1.2,26.1-7,28.5-22.2
	c1.2-7.4,0.5-14.6-0.5-21.8c-0.5-3.6-0.5-3.7,2.7-4.8c11.9-4.2,23.8-8.3,35.7-12.5c1.7-0.6,3.2-0.5,4.8-0.1c12,3.4,24,6.7,36,10
	c12.5,3.5,24.9,3.6,37.4-0.1c16.7-5,32.6-12.3,48.4-19.5c8.9-4,15.8-9.6,19.6-18.9c0.6-2.1,0.7-3.6,0.6-10.2
	C679,174.7,678.4,173.1,678.4,173z M171.5,338.3c-6.2,2.3-12.4,4.6-18.7,6.8c-28.5,10.3-57.1,20.5-85.6,30.8
	c-1.1,0.4-2.2,0.8-3.3,1.2c-1,0.3-2,0.5-2.5-0.8c-0.5-1.3,0.4-1.7,1.4-2c6.2-2.2,12.4-4.5,18.7-6.8c28.7-10.3,57.3-20.6,86-30.9
	c1.6-0.6,3.1-1.1,4.8-1.4c0.7-0.2,1.2,0.3,1.4,1.1C173.8,337.7,172.6,337.9,171.5,338.3z M623.3,176.9
	c-28.6,10.5-57.2,20.9-85.8,31.4c-0.8,0.3-1.5,0.6-2.1,0.8c-1,0.1-1.4-0.3-1.6-1c-0.2-0.7-0.1-1.4,0.6-1.7c0.9-0.5,1.8-0.7,2.8-1.1
	c28.3-10.3,56.6-20.6,84.9-30.9c1.4-0.5,3.7-2.4,4.5,0.4C627.1,176.6,624.5,176.5,623.3,176.9z"/>
<path style="fill:#FFFFFF;" d="M309.1,8.8c2.2,0.4,5.4,0.7,6.1,0.7c17.5,1.5,35,5.5,52.1,9.8c8.2,2.1,16.3,4.6,24.4,6.9
	c2.6,0.7,4.7,1.8,5.2,4.7c0.8,4.8-2.6,8.1-7.5,7.1c-6.4-1.3-12.7-2.7-19-4.1c-20.3-4.4-40.8-8-61.5-9.5c-12.4-0.9-25-1-37.1,2.8
	c-3.3,1-6.6,2.2-9.4,4.4c-3.6,2.9-3.4,5.3,0.6,7.7c2.8,1.6,5.9,2.2,9,2.9c11.6,2.8,23.1,5.9,34,11c3.6,1.7,7.1,3.7,10.3,6
	c4.3,3.1,7.2,7.3,9,12.3c2,5.5-0.2,8.2-6,8.2c-4.4-0.1-8.4-1.7-12.7-2.4c-14.8-2.6-29.7-3.3-44.7-2.4c-33.8,2.1-65.6,11.4-95.7,26.7
	c-2.7,1.4-5.4,2.6-8,4.1c-1.1,0.6-2.4,1.2-2.4,3.2c2.3,1.1,4.9,1.3,7.5,1.3c10,0,20-0.1,29.9,1.1c9.6,1.2,19.1,2.6,28.2,6.1
	c4,1.6,7.9,3.4,11.1,6.5c1.2,1.2,2.4,2.3,3.1,3.8c3.5,7.6,2.4,12.9-6.8,14.6c-28.7,5-55.7,14.7-81,29.3
	c-18.6,10.7-35.2,23.9-50,39.4c-1,1.1-2.1,2.2-2.9,3.5c-3.5,5.5,0.5,12.8,7.1,13c1.7,0.1,3.2-0.4,4.9-0.9c15-4.4,30.3-7.4,45.9-9
	c5.4-0.5,9.9,0.3,12.9,5.4c-0.7,1-1.7,0.4-2.5,0.3c-11.5-0.7-22.4,2.3-33.2,5.6c-20,6.3-39.1,14.8-57.9,23.9c-5.4,2.6-10.7,5.3-16,8
	c-1.5,0.7-3,1.5-4.7,1.3c-3.9-0.4-6.4-4.2-4.8-8.1c1.7-4.1,3.7-8.2,5.8-12.1c18.9-35,46.2-61.4,81.3-79.9
	c22.1-11.6,45.5-19.3,70-23.7c1-0.2,2-0.3,2.9-0.7c2.2-0.9,3.5-2.5,3.4-5c0-2.5-1.2-4.6-3.7-5.3c-2.7-0.8-5.5-1.4-8.3-1.7
	c-13.3-1.7-26.5-1.7-39.8-0.7c-12.1,0.9-24.2,2.3-36.2,4.1c-3.1,0.5-5.6-0.8-6.7-3.2c-1.2-2.5-0.6-5.2,2-7.5
	c8.1-7.2,16.8-13.6,25.9-19.5c26.7-17.1,55.8-27.6,87.1-32.3c14-2.1,28.1-2.8,42.3-2.3c1.8,0.1,3.7,0.1,5.5,0
	c3.2-0.1,5.3-2.1,5.6-5.2c0.2-2.7-1.4-5.1-4.4-5.8c-5.5-1.2-11.1-2.2-16.7-2.9c-17.9-2.2-35.8-3.1-53.8-3.1c-0.8,0-1.7,0-2.5,0
	c-2.4-0.2-4-1.5-4.8-3.7c-0.9-2.2-0.4-4.3,1.1-6c0.8-0.8,1.8-1.5,2.7-2.1c19.4-12.8,40.6-20.9,63.7-24.3c3.3-0.5,5.8-1,10.9-1.8
	C291.4,8,297.4,7.7,309.1,8.8z"/>
<path style="fill:#FFFFFF;" d="M559.4,371.5c5.3-1,10.1-3.3,14.7-5.9c11.6-6.4,21.7-14.8,31.4-23.7c11.5-10.6,22-22.2,32.3-34
	c0.3-0.4,0.5-0.8,0.8-1.3c-1.2-0.9-2.6-0.5-3.8-0.4c-15.9,1.2-31.8,2.4-47.7,3.6c-10.4,0.8-20.9,1.6-31.3,2.4
	c-15.6,1.2-31.1,2.4-46.7,3.6c-10.4,0.8-20.9,1.6-31.3,2.4c-15.6,1.2-31.1,2.6-46.7,3.6c-13.8,0.9-27.5,2.2-41.3,2.6
	c-20.6,0.7-41.2,1.9-61.8,2.7c-28.9,1.1-57.9,2.6-86.8,2.3c-2.3,0-4.7,0.1-7-0.5c-0.4-1.7,0.8-2.3,2-2.9c5.6-2.8,11.4-4.7,17.6-4.7
	c14.3,0,28.6-0.1,42.9-1.1c14.9-1,29.8-2,44.7-3.6c14.2-1.5,28.5-2.8,42.7-4.4c12.2-1.4,24.4-3,36.6-4.6c10.7-1.4,21.4-2.8,32.1-4.3
	c12.7-1.8,25.3-3.5,38-5.4c15.9-2.4,31.8-4.9,47.7-7.5c17.1-2.8,34.1-5.5,51.2-8.4c18.3-3.1,36.6-6.5,55-9.7
	c2.5-0.4,4.9-0.7,7.4-1.3c6-1.3,12.4,1.8,15.3,7c3.2,5.8,2.7,11.6-1.4,16.8c-5.1,6.4-10.4,12.6-15.8,18.7
	c-14.4,16.2-29.6,31.6-46.8,44.8c-11,8.5-22.5,15.9-35.8,20.3c-3-2.1-6-4.3-9-6.4c0.1-0.2,0.1-0.2,0.3-0.3
	C559.1,371.6,559.2,371.5,559.4,371.5z"/>
<path style="fill:#00A6EB;" d="M558.5,372.1c3,2.1,6,4.3,9,6.4c0.1,1.2,0.3,2.3,0.3,3.5c0.1,3.8-0.9,5.3-3.9,6.7
	c-2.9,1.3-5.1,0.4-7.1-1.8c-5.5-6.1-11.8-11.2-18.7-15.6c-11.4-7.2-23.8-12.2-36.9-15.1c-7.9-1.8-15.9-2.8-24.1-3.2
	c-4.6-0.2-9.3-1.1-13.9-0.6c-8.5,1-17.1,1.2-25.6,2.6c-10,1.6-19.8,3.6-29.4,6.3c-9.7,2.7-18.2,7.7-26.7,12.8
	c-10.7,6.4-20.9,13.5-30.3,21.6c-3.8,3.2-7.2,6.9-9.3,11.5c-0.7,1.6-1.4,1.6-3,1.2c-7.2-1.7-14-4.9-21.1-6.9
	c-8.8-2.4-17.6-4.2-26.6-5.4c-9.6-1.3-19.1-2.3-28.8-1.8c-19.5,0.9-38.4,4.2-55.7,13.9c-7.2,4.1-14.1,8.7-20,14.6
	c-1.7,1.7-3.5,3.1-5.7,3.8c-3.3,1.1-6.3,1.2-9-1.9c-3.5-4-7.3-7.7-10.3-12.1c-2.6-4-2.3-3.9,1.2-7.2c14.3-13.6,31.6-20.7,50.6-24.5
	c8.3-1.7,16.6-2.8,25.1-3c3.6-0.1,7.3-1.1,10.9-0.6c9.8,1.2,19.8,1,29.7,2.4c14.7,2.1,29.2,5.1,43.5,8.9c1.6,0.4,2.5,0.2,3.2-1.1
	c6.5-11.6,17.1-18.7,28.1-25.2c13.1-7.7,27.4-12,42.1-15.2c9-2,18.1-3.9,27.3-4.6c10.7-0.8,21.6-2,32.4-1.1
	c14.2,1.1,28.3,2.6,42.1,6c11.7,2.9,23.1,6.7,34.2,11.3C541.1,362.6,549.7,367.6,558.5,372.1z"/>
<path style="fill:#FFFFFF;" d="M354.6,120.8c8.1-11.9,25.1-20.3,47.4-23.2C398.5,100,359.2,119.3,354.6,120.8z"/>
</svg>
