<svg xmlns="http://www.w3.org/2000/svg" width="224" height="224" fill="none"><path d="M0 0h224v224H0z" fill="#FAFAFA"/><path d="M67.484 64.01a4.24 4.24 0 0 0-.46.117c-1.38.245-2.49 1.253-2.88 2.59a3.7 3.7 0 0 0 1.037 3.742l88.418 88.438c1.47 1.47 3.83 1.47 5.298 0s1.468-3.83 0-5.298l-8.52-8.52c5.513-.7 9.557-5.18 9.557-10.94V89.92c0-6.26-4.793-11.053-11.055-11.053h-16.695l-3.57-7.023c-1.107-2.58-3.726-4.034-6.674-4.034h-20.265c-2.575 0-5.096 1.454-6.56 4.034l-3.456 7.023H84.18L70.476 65.165c-.76-.822-1.87-1.24-2.992-1.155zm-.347 18.54c-1.84 1.845-2.992 4.42-2.992 7.37v44.22c0 6.262 4.793 11.056 11.05 11.056h54.575l-8.866-8.868c-2.952.735-5.914 1.498-8.866 1.498-14.36 0-25.788-11.43-25.788-25.796 0-2.95.764-5.916 1.498-8.864L67.137 82.55zm44.902 3.687c14.364 0 25.79 11.43 25.79 25.793 0 5.916-1.972 11.086-5.18 15.317l-5.297-5.298c1.885-2.894 3.11-6.288 3.11-10.02 0-10.32-8.103-18.423-18.423-18.423-3.727 0-7.124 1.224-10.017 3.11l-5.294-5.298c4.318-3.208 9.64-5.18 15.31-5.18zm-18.42 22.8v2.993c0 10.322 8.103 18.427 18.42 18.427 1.1 0 1.8.03 2.535-.348L93.62 109.037z" fill="#E0E0E0"/></svg>